<mxfile host="app.diagrams.net" agent="Mozilla/5.0 (Windows NT 10.0; Win64; x64) AppleWebKit/537.36 (KHTML, like Gecko) Chrome/132.0.0.0 Safari/537.36" version="26.0.11" pages="2">
  <diagram name="YouTubeVideos" id="Ok2L1LAulUtcAWMqbsCT">
    <mxGraphModel dx="1834" dy="2030" grid="0" gridSize="10" guides="1" tooltips="1" connect="1" arrows="1" fold="1" page="0" pageScale="1" pageWidth="827" pageHeight="1169" math="0" shadow="0">
      <root>
        <mxCell id="0" />
        <mxCell id="1" parent="0" />
        <mxCell id="TMw1ZfZnCiNaBLNGPd-r-24" value="Video" style="swimlane;fontStyle=1;align=center;verticalAlign=top;childLayout=stackLayout;horizontal=1;startSize=26;horizontalStack=0;resizeParent=1;resizeParentMax=0;resizeLast=0;collapsible=1;marginBottom=0;whiteSpace=wrap;html=1;" vertex="1" parent="1">
          <mxGeometry x="-25" y="-1004" width="246" height="227" as="geometry" />
        </mxCell>
        <mxCell id="TMw1ZfZnCiNaBLNGPd-r-25" value="- title : string&lt;div&gt;- author : string&lt;/div&gt;&lt;div&gt;- length : int&lt;/div&gt;&lt;div&gt;_ comments : List&amp;lt;Comment&amp;gt;&lt;/div&gt;&lt;div&gt;&lt;br&gt;&lt;/div&gt;" style="text;strokeColor=none;fillColor=none;align=left;verticalAlign=top;spacingLeft=4;spacingRight=4;overflow=hidden;rotatable=0;points=[[0,0.5],[1,0.5]];portConstraint=eastwest;whiteSpace=wrap;html=1;" vertex="1" parent="TMw1ZfZnCiNaBLNGPd-r-24">
          <mxGeometry y="26" width="246" height="92" as="geometry" />
        </mxCell>
        <mxCell id="TMw1ZfZnCiNaBLNGPd-r-26" value="" style="line;strokeWidth=1;fillColor=none;align=left;verticalAlign=middle;spacingTop=-1;spacingLeft=3;spacingRight=3;rotatable=0;labelPosition=right;points=[];portConstraint=eastwest;strokeColor=inherit;" vertex="1" parent="TMw1ZfZnCiNaBLNGPd-r-24">
          <mxGeometry y="118" width="246" height="8" as="geometry" />
        </mxCell>
        <mxCell id="TMw1ZfZnCiNaBLNGPd-r-27" value="+ Video(title,author : string, length:int)&lt;div&gt;+ AddComment(comment : Comment):void&lt;/div&gt;&lt;div&gt;+GetCommentCount() : int&lt;br&gt;+DisplayVideo() : void&lt;/div&gt;" style="text;strokeColor=none;fillColor=none;align=left;verticalAlign=top;spacingLeft=4;spacingRight=4;overflow=hidden;rotatable=0;points=[[0,0.5],[1,0.5]];portConstraint=eastwest;whiteSpace=wrap;html=1;" vertex="1" parent="TMw1ZfZnCiNaBLNGPd-r-24">
          <mxGeometry y="126" width="246" height="101" as="geometry" />
        </mxCell>
        <mxCell id="TMw1ZfZnCiNaBLNGPd-r-28" value="Comment" style="swimlane;fontStyle=1;align=center;verticalAlign=top;childLayout=stackLayout;horizontal=1;startSize=26;horizontalStack=0;resizeParent=1;resizeParentMax=0;resizeLast=0;collapsible=1;marginBottom=0;whiteSpace=wrap;html=1;" vertex="1" parent="1">
          <mxGeometry x="277" y="-1004" width="329" height="149" as="geometry" />
        </mxCell>
        <mxCell id="TMw1ZfZnCiNaBLNGPd-r-29" value="- nameOfCommenter :string&lt;div&gt;&lt;div&gt;- text:string&lt;/div&gt;&lt;/div&gt;" style="text;strokeColor=none;fillColor=none;align=left;verticalAlign=top;spacingLeft=4;spacingRight=4;overflow=hidden;rotatable=0;points=[[0,0.5],[1,0.5]];portConstraint=eastwest;whiteSpace=wrap;html=1;" vertex="1" parent="TMw1ZfZnCiNaBLNGPd-r-28">
          <mxGeometry y="26" width="329" height="42" as="geometry" />
        </mxCell>
        <mxCell id="TMw1ZfZnCiNaBLNGPd-r-30" value="" style="line;strokeWidth=1;fillColor=none;align=left;verticalAlign=middle;spacingTop=-1;spacingLeft=3;spacingRight=3;rotatable=0;labelPosition=right;points=[];portConstraint=eastwest;strokeColor=inherit;" vertex="1" parent="TMw1ZfZnCiNaBLNGPd-r-28">
          <mxGeometry y="68" width="329" height="8" as="geometry" />
        </mxCell>
        <mxCell id="TMw1ZfZnCiNaBLNGPd-r-31" value="Comment(nameOfCommenter: string, text :string)&lt;div&gt;+ DisplayComment():void&lt;/div&gt;" style="text;strokeColor=none;fillColor=none;align=left;verticalAlign=top;spacingLeft=4;spacingRight=4;overflow=hidden;rotatable=0;points=[[0,0.5],[1,0.5]];portConstraint=eastwest;whiteSpace=wrap;html=1;" vertex="1" parent="TMw1ZfZnCiNaBLNGPd-r-28">
          <mxGeometry y="76" width="329" height="73" as="geometry" />
        </mxCell>
      </root>
    </mxGraphModel>
  </diagram>
  <diagram id="of2ljVnQtCuxN74DjXKJ" name="OnlineOrdering">
    <mxGraphModel dx="1512" dy="1229" grid="0" gridSize="10" guides="1" tooltips="1" connect="1" arrows="1" fold="1" page="0" pageScale="1" pageWidth="827" pageHeight="1169" math="0" shadow="0">
      <root>
        <mxCell id="0" />
        <mxCell id="1" parent="0" />
        <mxCell id="ULseQwhew1n0l3pWI8_Z-1" value="&lt;p style=&quot;margin:0px;margin-top:4px;text-align:center;&quot;&gt;&lt;span style=&quot;background-color: transparent; color: light-dark(rgb(0, 0, 0), rgb(255, 255, 255)); text-align: left;&quot;&gt;&lt;b&gt;Address&lt;/b&gt;&lt;/span&gt;&lt;/p&gt;&lt;hr size=&quot;1&quot; style=&quot;border-style:solid;&quot;&gt;&lt;p style=&quot;margin:0px;margin-left:4px;&quot;&gt;_street : string&lt;/p&gt;&lt;p style=&quot;margin:0px;margin-left:4px;&quot;&gt;_city : string&lt;/p&gt;&lt;p style=&quot;margin:0px;margin-left:4px;&quot;&gt;_state: string&lt;/p&gt;&lt;p style=&quot;margin:0px;margin-left:4px;&quot;&gt;_country :string&lt;/p&gt;&lt;p style=&quot;margin:0px;margin-left:4px;&quot;&gt;&lt;br&gt;&lt;/p&gt;&lt;hr size=&quot;1&quot; style=&quot;border-style:solid;&quot;&gt;&lt;p style=&quot;margin:0px;margin-left:4px;&quot;&gt;Address(string,city,state,country : string)&lt;/p&gt;&lt;p style=&quot;margin:0px;margin-left:4px;&quot;&gt;IsInUSA() : bool&lt;/p&gt;&lt;p style=&quot;margin:0px;margin-left:4px;&quot;&gt;GetFullAddress():string&lt;/p&gt;" style="verticalAlign=top;align=left;overflow=fill;html=1;whiteSpace=wrap;" vertex="1" parent="1">
          <mxGeometry x="-408" y="-97" width="276" height="167" as="geometry" />
        </mxCell>
        <mxCell id="ULseQwhew1n0l3pWI8_Z-2" value="&lt;p style=&quot;margin:0px;margin-top:4px;text-align:center;&quot;&gt;&lt;b&gt;Product&lt;/b&gt;&lt;/p&gt;&lt;hr size=&quot;1&quot; style=&quot;border-style:solid;&quot;&gt;&lt;p style=&quot;margin:0px;margin-left:4px;&quot;&gt;_username : string&lt;/p&gt;&lt;p style=&quot;margin:0px;margin-left:4px;&quot;&gt;_productId : string&lt;/p&gt;&lt;p style=&quot;margin:0px;margin-left:4px;&quot;&gt;_price : double&lt;/p&gt;&lt;p style=&quot;margin:0px;margin-left:4px;&quot;&gt;_quantity : int&lt;/p&gt;&lt;hr size=&quot;1&quot; style=&quot;border-style:solid;&quot;&gt;&lt;p style=&quot;margin:0px;margin-left:4px;&quot;&gt;Product (username,ProductId : string, price:double, quantity : int)&lt;/p&gt;&lt;p style=&quot;margin:0px;margin-left:4px;&quot;&gt;GetTotalCost() : double&lt;/p&gt;&lt;p style=&quot;margin:0px;margin-left:4px;&quot;&gt;GetName() : string&lt;/p&gt;&lt;p style=&quot;margin:0px;margin-left:4px;&quot;&gt;GetProductId() :string&lt;/p&gt;" style="verticalAlign=top;align=left;overflow=fill;html=1;whiteSpace=wrap;" vertex="1" parent="1">
          <mxGeometry x="66" y="98" width="435" height="213" as="geometry" />
        </mxCell>
        <mxCell id="ULseQwhew1n0l3pWI8_Z-3" value="&lt;p style=&quot;margin:0px;margin-top:4px;text-align:center;&quot;&gt;&lt;b&gt;Order&lt;/b&gt;&lt;/p&gt;&lt;hr size=&quot;1&quot; style=&quot;border-style:solid;&quot;&gt;&lt;p style=&quot;margin:0px;margin-left:4px;&quot;&gt;&amp;nbsp;_products : List&amp;lt;Product&amp;gt;&lt;/p&gt;&lt;p style=&quot;margin:0px;margin-left:4px;&quot;&gt;_customer : Customer&amp;nbsp;&lt;/p&gt;&lt;hr size=&quot;1&quot; style=&quot;border-style:solid;&quot;&gt;&lt;p class=&quot;MsoNormal&quot;&gt;Order(customer : Customer) &lt;/p&gt;&lt;p class=&quot;MsoNormal&quot;&gt;AddProduct(product : Product) : void &lt;/p&gt;&lt;p class=&quot;MsoNormal&quot;&gt;CalculateTotalCost() : double &lt;/p&gt;&lt;p class=&quot;MsoNormal&quot;&gt;GetPackingLabel() : string &lt;/p&gt;&lt;p style=&quot;margin:0px;margin-left:4px;&quot;&gt;&lt;br/&gt;&lt;br/&gt;&lt;br/&gt;&lt;br/&gt;&lt;br/&gt;&lt;br/&gt;&lt;br/&gt;&lt;br/&gt;&lt;/p&gt;&lt;p class=&quot;MsoNormal&quot;&gt;GetShippingLabel() : string&lt;/p&gt;" style="verticalAlign=top;align=left;overflow=fill;html=1;whiteSpace=wrap;" vertex="1" parent="1">
          <mxGeometry x="-407" y="112" width="277" height="191" as="geometry" />
        </mxCell>
        <mxCell id="ULseQwhew1n0l3pWI8_Z-4" value="&lt;p style=&quot;margin:0px;margin-top:4px;text-align:center;&quot;&gt;Customer&lt;/p&gt;&lt;hr size=&quot;1&quot; style=&quot;border-style:solid;&quot;&gt;&lt;p style=&quot;margin:0px;margin-left:4px;&quot;&gt;_name : string&lt;/p&gt;&lt;p style=&quot;margin:0px;margin-left:4px;&quot;&gt;_address : Address&lt;/p&gt;&lt;hr size=&quot;1&quot; style=&quot;border-style:solid;&quot;&gt;&lt;p style=&quot;margin:0px;margin-left:4px;&quot;&gt;Customer(name : string, address : Address)&lt;/p&gt;&lt;p style=&quot;margin:0px;margin-left:4px;&quot;&gt;&lt;br&gt;&lt;/p&gt;&lt;p style=&quot;margin:0px;margin-left:4px;&quot;&gt;GetName() : string&lt;/p&gt;&lt;p style=&quot;margin:0px;margin-left:4px;&quot;&gt;&lt;br&gt;&lt;/p&gt;&lt;p style=&quot;margin:0px;margin-left:4px;&quot;&gt;GetAddress(): Address&lt;/p&gt;&lt;p style=&quot;margin:0px;margin-left:4px;&quot;&gt;&lt;br&gt;&lt;/p&gt;&lt;p style=&quot;margin:0px;margin-left:4px;&quot;&gt;IsInUSA() : bool&lt;/p&gt;" style="verticalAlign=top;align=left;overflow=fill;html=1;whiteSpace=wrap;" vertex="1" parent="1">
          <mxGeometry x="65" y="-102" width="439" height="173" as="geometry" />
        </mxCell>
      </root>
    </mxGraphModel>
  </diagram>
</mxfile>
